<?xml version="1.0" encoding="UTF-8"?><svg version="1.1" xmlns="http://www.w3.org/2000/svg" width="663" height="662"><path d="M0 0 C67.51450867 5.3060183 134.14711423 32.77068964 193.09082031 64.48828125 C196.35161409 66.18271185 199.66300735 67.68530548 203.05615234 69.09375 C206.19798087 70.79818298 208.49929551 72.41382868 211 75 C211.47333943 78.01882778 211.59244022 80.22312101 211.41015625 83.20703125 C211.37236053 84.39692406 211.37236053 84.39692406 211.33380127 85.6108551 C211.2493305 88.07580049 211.12537591 90.53684133 211 93 C210.9483247 94.45708766 210.89961874 95.91428443 210.85424805 97.37158203 C210.70762992 101.73016452 210.48996399 106.08314853 210.25 110.4375 C210.20709839 111.22380798 210.16419678 112.01011597 210.11999512 112.82025146 C205.96115381 187.13863411 188.30139412 259.90183027 121 390 C120.62697754 390.53753906 120.25395508 391.07507813 119.86962891 391.62890625 C97.68285818 423.49800187 71.68111426 452.1704267 41 476 C36.92992031 472.16586696 33.69612152 468.07967748 30.5 463.5 C29.98373047 462.76297852 29.46746094 462.02595703 28.93554688 461.26660156 C22.57684761 452.08053842 16.7355633 442.58387324 11 433 C10.4946875 432.15985352 9.989375 431.31970703 9.46875 430.45410156 C-8.52749814 400.35490789 -22.7851402 368.41741601 -30 334 C-30.17644043 333.1970752 -30.35288086 332.39415039 -30.53466797 331.56689453 C-35.07947858 310.2301573 -35.67452011 284.15048405 -30 263 C-29.80664062 262.236875 -29.61328125 261.47375 -29.4140625 260.6875 C-26.08512094 247.70051813 -21.07219891 235.92849741 -15 224 C-15.33 224 -15.66 224 -16 224 C-36.45674771 249.33330575 -49.00872 282.87011339 -49.203125 315.50390625 C-49.21371445 316.69181259 -49.21371445 316.69181259 -49.22451782 317.90371704 C-49.3431007 335.14035919 -49.2488628 352.01115496 -46 369 C-45.80664062 370.04494629 -45.61328125 371.08989258 -45.4140625 372.16650391 C-38.17490817 410.52396748 -25.30413541 447.16480007 -10.03857422 482.98510742 C-7.08827827 489.91477777 -4.21328588 496.79054671 -2 504 C-9.27942868 509.24455979 -16.77219708 514.0295873 -24.4375 518.6875 C-33.45013155 524.18730046 -42.42084808 529.74500165 -51.30053711 535.45776367 C-52.3718689 536.14189331 -52.3718689 536.14189331 -53.46484375 536.83984375 C-54.38704712 537.43333618 -54.38704712 537.43333618 -55.32788086 538.03881836 C-57 539 -57 539 -60 540 C-80.44532086 506.96154672 -93.62745971 472.41474994 -100 434 C-100.16516113 433.02482422 -100.33032227 432.04964844 -100.50048828 431.04492188 C-105.70171229 398.70804625 -105.12693588 363.30018758 -100 331 C-99.81775879 329.83678223 -99.63551758 328.67356445 -99.44775391 327.47509766 C-96.98903403 312.14969333 -93.8251322 297.04009426 -90 282 C-119.03268286 330.12491687 -142.43701823 380.56316046 -149 437 C-149.09643799 437.78753662 -149.19287598 438.57507324 -149.29223633 439.38647461 C-150.23806276 448.14305032 -150.11131106 456.89321989 -150.0625 465.6875 C-150.05747247 467.27538921 -150.05291179 468.86327996 -150.04882812 470.45117188 C-150.03792755 474.30082025 -150.02073283 478.15039253 -150 482 C-153.40829937 480.38182825 -155.79530758 478.52234036 -158.5625 475.9375 C-162.10168226 472.68892508 -165.69560168 469.57531784 -169.4375 466.5625 C-173.41411953 463.33468757 -177.30923658 460.04009261 -181.125 456.625 C-182.03507813 455.81289063 -182.94515625 455.00078125 -183.8828125 454.1640625 C-190.79865722 447.09509945 -188.19962525 427.86289155 -188.18286133 418.37451172 C-187.64216906 370.49080439 -176.80862355 320.37387904 -150 280 C-149.61908203 279.42378906 -149.23816406 278.84757812 -148.84570312 278.25390625 C-116.00663416 229.1865453 -60.11444342 191.14666144 -2.39453125 178.42578125 C2.77531857 177.77731907 7.91946584 177.77467078 13.125 177.75 C14.18976563 177.729375 15.25453125 177.70875 16.3515625 177.6875 C26.88279945 177.63637749 36.54542799 179.68507701 45.9375 184.5 C46.60136719 184.83386719 47.26523437 185.16773438 47.94921875 185.51171875 C55.14275785 189.31441022 61.07511224 194.48092647 67 200 C60.74340566 186.79448326 53.1992175 179.53087051 39.41796875 174.12890625 C8.67121067 163.97369129 -22.63056166 167.16668238 -53 177 C-54.02456299 177.32194336 -54.02456299 177.32194336 -55.06982422 177.65039062 C-84.64243478 187.09563506 -111.85490612 205.79689511 -134.5234375 226.734375 C-135.84390906 227.94237737 -137.17120818 229.14420245 -138.54003906 230.29711914 C-146.12232374 236.7216237 -153.00135384 243.89371777 -160 250.9375 C-161.36044318 252.30296745 -162.72111831 253.66820386 -164.08203125 255.03320312 C-167.3907031 258.35280886 -170.69621322 261.67553273 -174 265 C-174.33 264.34 -174.66 263.68 -175 263 C-173.56288914 260.28648746 -172.06549843 257.72229292 -170.4375 255.125 C-169.94443359 254.3306958 -169.45136719 253.5363916 -168.94335938 252.71801758 C-159.9343777 238.37499132 -150.25746305 224.66233528 -139 212 C-137.83331155 210.6458521 -136.66664231 209.29168765 -135.5 207.9375 C-134.3373191 206.6214679 -133.17015 205.30939541 -132 204 C-131.14535156 203.0409375 -130.29070312 202.081875 -129.41015625 201.09375 C-124.2383669 195.33823725 -118.96728351 189.93958468 -113 185 C-112.20078125 184.28972656 -111.4015625 183.57945312 -110.578125 182.84765625 C-75.04363808 151.88045508 -28.99629122 134.34588472 18.30957031 137.13623047 C40.85181879 138.80865874 58.95367387 146.07361573 73.96875 163.44140625 C89.17763668 182.59875389 92.97417033 208.59626905 90.38354492 232.3671875 C89.49051123 239.9499627 88.36087313 247.48624303 87 255 C108.29391239 230.99374515 124.28079431 203.09572498 123 170 C119.107653 120.90669509 90.76951654 74.33004387 57.35205078 39.41943359 C56.16664159 38.17494658 55.0014996 36.91121928 53.83984375 35.64453125 C40.03504973 21.04177226 22.37646377 9.47611459 3.37890625 2.97265625 C1 2 1 2 0 0 Z M-13 219 C-12 221 -12 221 -12 221 Z " fill="#1a2236" transform="translate(391,62)"/><path d="M0 0 C10.11686486 9.85633296 10.11686486 9.85633296 12.35546875 13.6171875 C12.02546875 14.6071875 11.69546875 15.5971875 11.35546875 16.6171875 C10.75935791 16.40626465 10.16324707 16.1953418 9.54907227 15.97802734 C-20.95502871 5.27473213 -52.92785351 -2.43341095 -85.42578125 -2.5859375 C-86.42896393 -2.59299713 -87.43214661 -2.60005676 -88.46572876 -2.60733032 C-119.17925206 -2.83178165 -119.17925206 -2.83178165 -149.64453125 0.6171875 C-151.41425293 0.91520264 -151.41425293 0.91520264 -153.21972656 1.21923828 C-204.36846431 9.97578674 -253.19137911 27.29342977 -300.02148438 49.38134766 C-302.58393026 50.58863555 -305.15219881 51.78253647 -307.72265625 52.97265625 C-309.25932344 53.68705092 -310.79579505 54.4018665 -312.33203125 55.1171875 C-313.00935303 55.43147705 -313.6866748 55.7457666 -314.38452148 56.06958008 C-317.17070611 57.37893264 -319.84321352 58.73776709 -322.4765625 60.3359375 C-324.64453125 61.6171875 -324.64453125 61.6171875 -326.64453125 61.6171875 C-326.48766846 62.47844238 -326.33080566 63.33969727 -326.16918945 64.22705078 C-325.66879858 67.46038148 -325.41303086 70.59331515 -325.25 73.859375 C-323.20869868 111.37451021 -317.72237507 148.0403228 -308.64453125 184.4921875 C-308.44124207 185.31219238 -308.23795288 186.13219727 -308.02850342 186.97705078 C-305.53734499 196.9607796 -302.75283163 206.79908118 -299.52368164 216.57125854 C-297.64453125 222.31445441 -297.64453125 222.31445441 -297.64453125 225.6171875 C-290.53604629 219.44193939 -283.45798996 213.22540997 -276.609375 206.76171875 C-269.53619111 200.10281357 -262.23693393 193.94338062 -254.51318359 188.05322266 C-252.59038723 186.57557852 -250.68879957 185.07355318 -248.7890625 183.56640625 C-233.66149446 171.65161055 -217.52183093 161.26606101 -200.83203125 151.6796875 C-199.93645508 151.165271 -199.04087891 150.65085449 -198.11816406 150.12084961 C-191.90538451 146.6171875 -191.90538451 146.6171875 -189.64453125 146.6171875 C-190.73981864 149.90304966 -191.35182121 150.41017699 -193.95703125 152.4921875 C-245.56968099 196.57416592 -269.87804689 269.30865864 -286.64453125 332.6171875 C-287.63453125 332.6171875 -288.62453125 332.6171875 -289.64453125 332.6171875 C-329.82270579 263.70494333 -354.84417713 189.58992461 -362.95703125 110.0546875 C-363.07913467 108.85974167 -363.07913467 108.85974167 -363.20370483 107.64065552 C-364.88326677 90.92674927 -365.81699622 74.29145124 -365.70703125 57.4921875 C-365.7019893 56.12890796 -365.69743131 54.76562654 -365.69335938 53.40234375 C-365.68179282 50.14057407 -365.66550176 46.87890785 -365.64453125 43.6171875 C-358.69048088 39.83348414 -351.73039071 36.06111121 -344.76367188 32.30078125 C-342.88927556 31.28905325 -341.01540485 30.27634931 -339.14257812 29.26171875 C-278.1425889 -3.71990272 -213.99283402 -26.79257727 -144.64453125 -33.3828125 C-143.49960205 -33.49302734 -143.49960205 -33.49302734 -142.33154297 -33.60546875 C-95.36345065 -37.90963709 -36.15452706 -34.18490759 0 0 Z " fill="#1a2236" transform="translate(426.64453125,94.3828125)"/><path d="M0 0 C6.58059208 1.32980761 11.26054022 4.33337871 15.375 9.625 C19.66229926 16.14276337 20.60827273 22.82014611 19.62890625 30.53125 C18.0597855 36.26495536 14.82615459 39.96466347 9.9609375 43.27734375 C2.57571658 47.24829168 -5.11831702 48.01460135 -13.37109375 47.53125 C-13.45617187 48.25699219 -13.54125 48.98273438 -13.62890625 49.73046875 C-16.08191528 58.9873502 -26.85748407 65.50345137 -34.37109375 70.53125 C-35.37109375 67.53125 -35.37109375 67.53125 -34.43359375 65.28125 C-32.53544708 60.3683998 -32.83906405 56.79482055 -34.87109375 51.96875 C-42.07963623 40.78049137 -56.64348218 37.49985251 -68.73046875 34.42578125 C-81.17108962 31.81500307 -93.69590708 31.12153643 -106.37109375 31.15625 C-107.50612839 31.15706573 -107.50612839 31.15706573 -108.66409302 31.15789795 C-128.83061417 31.22403417 -147.31310973 34.72098198 -166.47021484 40.95068359 C-168.7450878 41.64547526 -171.02540945 42.14108608 -173.37109375 42.53125 C-173.37109375 41.87125 -173.37109375 41.21125 -173.37109375 40.53125 C-152.92600553 20.46302977 -123.53045801 15.27905453 -95.97119141 15.35009766 C-72.74942858 15.65273491 -49.47149253 19.60918557 -26.99609375 25.28125 C-16.4178619 27.93949458 -5.97718701 30.20854511 4.62890625 26.53125 C6.75785249 24.91576799 6.75785249 24.91576799 7.62890625 22.53125 C7.82423622 18.23399058 6.32155208 15.80837268 3.69140625 12.59375 C-0.44150723 8.1250373 -5.27427375 4.81290473 -10.37109375 1.53125 C-6.48641452 -1.05853615 -4.48814094 -0.57490015 0 0 Z " fill="#1a2236" transform="translate(352.37109375,116.46875)"/><path d="M0 0 C-0.65813026 2.8648023 -1.57031824 5.50979879 -2.625 8.25 C-4.21937764 13.0568118 -4.29105723 16.0778443 -3 21 C-0.000988 25.54136103 2.8104688 28.30160797 8 30 C14.45085152 30.63106156 19.61082398 30.97883706 25 27 C27.99013743 22.51479385 27.60247708 18.2611661 27 13 C26.136941 10.45209974 25.11625985 8.16073506 23.875 5.77734375 C23 4 23 4 23 2 C34.09320683 2.66559241 44.63803191 7.17972883 54 13 C53.57856124 24.16812709 47.56660451 32.28284866 39.64453125 39.77734375 C35.69786856 43.09440589 31.58555662 45.6631298 27 48 C26.236875 48.38929688 25.47375 48.77859375 24.6875 49.1796875 C12.61554355 54.92225011 -3.18032106 56.58703236 -16.0625 52.5625 C-24.40847471 48.89651111 -31.26264671 42.28717469 -35 34 C-37.45070473 26.39781389 -37.09988961 16.18880516 -34.16796875 8.76953125 C-31.92710661 5.37451268 -28.75862211 4.21901258 -25 3 C-24.35675781 2.78859375 -23.71351563 2.5771875 -23.05078125 2.359375 C-15.57389501 0.2361213 -7.73403413 -0.16813118 0 0 Z " fill="#1a2236" transform="translate(245,153)"/></svg>